<?xml version="1.0" ?><svg id="Icons" viewBox="0 0 24 24" xmlns="http://www.w3.org/2000/svg" xmlns:xlink="http://www.w3.org/1999/xlink"><defs><style>.cls-1{fill:url(#linear-gradient);}.cls-2{fill:#a4ffa6;}</style><linearGradient gradientUnits="userSpaceOnUse" id="linear-gradient" x1="12" x2="12" y1="0.915" y2="23.047"><stop offset="0" stop-color="#71ff7b"/><stop offset="1" stop-color="#27f42c"/></linearGradient></defs><path class="cls-1" d="M12,23l4.221-2.3a11,11,0,0,0,5.605-11.33L21,4c-6,0-9-3-9-3S9,4,3,4L2.174,9.368A11,11,0,0,0,7.779,20.7Z"/><path class="cls-2" d="M10,16a1,1,0,0,1-.707-.293l-2-2a1,1,0,1,1,1.414-1.414L10,13.586l5.293-5.293a1,1,0,0,1,1.414,1.414l-6,6A1,1,0,0,1,10,16Z"/></svg>